PathFileType	4	(X/Y/Z)	c:/Users/goper/Files/vsCode/490R/osim_files/C10/C10_SSWS_06.trc
DataRate	CameraRate	NumFrames	NumMarkers	Units                	OrigDataRate	OrigDataStartFrame	OrigNumFrames
250.00	250.00	6	36	mm	250.0	1599	2557
                Frame#	Time	LPSIS			LASIS			LTH1			LTH2			LTH3			LTH4			LLFE			LMFE			LSH1			LSH2			LSH3			LSH4			LLMAL			LMMAL			LCAL			LMTP5			LTOE			LMTP1			RPSIS			RASIS			RTH1			RTH2			RTH3			RTH4			RLFE			RMFE			RSH1			RSH2			RSH3			RSH4			RLMAL			RMMAL			RCAL			RMTP1			RTOE			RMTP5		
		X1	Y1	Z1	X2	Y2	Z2	X3	Y3	Z3	X4	Y4	Z4	X5	Y5	Z5	X6	Y6	Z6	X7	Y7	Z7	X8	Y8	Z8	X9	Y9	Z9	X10	Y10	Z10	X11	Y11	Z11	X12	Y12	Z12	X13	Y13	Z13	X14	Y14	Z14	X15	Y15	Z15	X16	Y16	Z16	X17	Y17	Z17	X18	Y18	Z18	X19	Y19	Z19	X20	Y20	Z20	X21	Y21	Z21	X22	Y22	Z22	X23	Y23	Z23	X24	Y24	Z24	X25	Y25	Z25	X26	Y26	Z26	X27	Y27	Z27	X28	Y28	Z28	X29	Y29	Z29	X30	Y30	Z30	X31	Y31	Z31	X32	Y32	Z32	X33	Y33	Z33	X34	Y34	Z34	X35	Y35	Z35	X36	Y36	Z36

1599	6.39200	130.67891	986.31232	279.39990	-25.90465	980.73077	416.39542	-40.69662	750.37097	461.01053	-65.18728	709.49341	456.03702	-90.42308	775.92633	439.19778	-106.19846	731.53168	434.07309	0.00000	0.00000	0.00000	-166.11348	488.34631	254.46368	-134.00688	399.53906	380.66486	-141.74318	352.46582	383.52869	-192.14738	402.88272	361.03287	-189.96590	357.32712	362.05319	-173.51747	86.81574	332.42496	0.00000	0.00000	0.00000	-103.92548	40.22040	290.42490	-281.42285	30.33100	341.81198	-329.67648	51.73247	275.44958	-291.37045	27.25715	232.35460	117.86629	986.78424	195.30589	-45.96018	948.65326	85.83693	89.39877	708.38196	51.00891	88.73902	665.24530	56.33434	28.89238	703.76019	49.84410	35.83025	659.74591	53.30075	124.20143	447.42032	107.51279	105.93723	428.64764	218.95718	240.49457	424.84027	107.43822	268.26822	390.84012	106.55088	196.10046	379.93619	105.89474	230.86624	354.19315	103.89318	435.63998	182.02873	156.27504	410.10092	182.03618	235.87692	513.00897	189.63249	200.72987	407.48352	60.41946	250.56982	366.43100	41.43482	213.41431	410.52039	44.97228	148.93517
1600	6.39600	125.05206	986.69873	278.71143	-30.89640	982.24011	416.76721	-46.29660	750.58655	461.97925	-70.32925	709.68805	456.81525	-95.87434	776.07166	440.41513	-111.46047	731.63507	435.02704	0.00000	0.00000	0.00000	-168.83113	488.35410	254.42421	-136.60568	399.66364	380.83615	-144.07027	352.55725	383.62424	-194.87169	402.68744	361.26331	-192.32332	356.97083	362.36166	-173.92053	86.84270	332.39963	0.00000	0.00000	0.00000	-103.96250	40.25603	290.39227	-281.50180	30.23400	341.94833	-329.81943	51.43311	275.57730	-291.46637	27.25717	232.38846	112.02815	986.87518	194.61043	-52.16979	949.00293	86.58381	81.51121	707.12201	51.30902	80.40623	663.95166	56.73028	20.97466	703.13269	50.37201	27.44070	659.10303	53.86292	113.65683	446.09204	107.46759	94.73939	426.74213	218.44080	230.31534	425.04532	107.31366	258.17310	391.54245	106.45042	186.23714	379.43240	105.64851	220.51518	354.24225	103.53839	428.79666	185.97198	155.97816	403.38608	185.25781	235.57323	505.73563	196.28062	200.33754	405.21014	62.67835	250.22169	364.53339	42.31259	213.18234	408.41653	47.75051	148.74217
1601	6.40000	119.48987	987.02094	278.03799	-35.89449	983.69275	417.22421	-51.17444	750.90503	463.23373	-75.26154	709.98694	457.66653	-101.27255	776.22473	441.52011	-116.56436	731.76062	435.88074	0.00000	0.00000	0.00000	-171.25812	488.69620	254.30014	-138.87418	399.92368	380.95670	-146.14378	352.66528	383.59485	-197.47177	402.57932	361.49600	-194.48065	356.85950	362.57117	-174.22755	86.85952	332.31812	0.00000	0.00000	0.00000	-103.93684	40.30676	290.38083	-281.52826	30.21674	341.96451	-329.92368	51.19857	275.55054	-291.43008	27.20320	232.28232	106.34645	986.99713	193.94545	-58.25333	949.44788	87.39674	73.63013	705.85278	51.66254	72.09288	662.73590	57.13397	13.06875	702.54779	50.89278	19.02191	658.50977	54.38065	103.00272	444.72519	107.49794	83.36043	424.97214	217.95363	219.48172	425.18640	107.21794	247.86006	392.16104	106.34052	176.10558	378.86646	105.50195	211.64360	354.15637	103.39868	421.54276	189.94357	155.75417	396.41031	188.55907	235.32013	498.12442	202.97285	199.89728	402.50818	65.04954	249.73875	362.29272	43.40618	212.86983	406.05637	50.78289	148.52785
1602	6.40400	113.90149	987.28906	277.41061	-40.76891	985.06598	417.81573	-56.51939	751.31201	464.25677	-80.04559	710.25647	458.42444	-106.42262	776.44940	442.61105	-121.45193	731.94092	436.63098	0.00000	0.00000	0.00000	-173.45837	489.23199	254.09187	-141.00726	400.20554	380.78857	-148.07217	352.87799	383.50784	-199.86319	402.57315	361.74341	-196.55637	356.83493	362.75055	-174.44293	86.89687	332.27377	0.00000	0.00000	0.00000	-103.89513	40.41738	290.34454	-281.57901	30.28541	341.91904	-329.97949	50.99548	275.40939	-291.35980	27.01034	232.04628	100.74476	987.07825	193.35240	-62.42675	949.73956	88.70899	65.74857	704.59491	51.92919	63.70343	661.43048	57.55563	5.16666	702.04840	51.40464	10.57095	657.89587	54.98976	92.28687	443.39719	107.65101	71.79468	423.32275	217.55411	208.43324	425.25787	107.14646	237.41064	392.81094	106.30708	165.86629	378.27155	104.71735	201.76744	354.18326	102.75085	414.07306	193.95796	155.48982	389.16071	191.79353	235.05641	490.08603	209.73663	199.38950	399.66159	67.89513	249.16653	359.90350	44.76380	212.41359	403.42429	54.03161	148.24481
1603	6.40800	108.35136	987.45459	276.86334	-45.56010	986.26471	418.40991	-60.95814	751.81042	465.46115	-84.58531	710.66528	459.14069	-111.44973	776.63000	443.59671	-126.17086	732.10968	437.34265	0.00000	0.00000	0.00000	-175.44986	489.83792	253.79146	-142.86888	400.52185	380.60388	-149.74220	353.13342	383.31918	-201.99779	402.59015	362.02267	-198.46671	356.83698	362.98962	-174.58000	86.90961	332.21759	0.00000	0.00000	0.00000	-103.85072	40.45406	290.31598	-281.56860	30.32757	341.86871	-330.01547	50.81642	275.30154	-291.53851	26.85732	232.07550	95.13865	987.10291	192.84619	-68.20085	950.35754	89.42544	57.89854	703.32916	52.28374	55.42121	660.20850	58.04445	-2.69379	701.58459	51.84663	2.11684	657.34283	55.52557	81.62811	442.09595	108.01579	60.25062	421.72513	217.22278	197.22240	425.20776	107.09286	226.52690	392.94482	106.23932	155.40793	377.63620	104.66796	191.76358	354.11478	102.42879	406.31885	198.03604	155.23532	381.69867	195.06871	234.80096	481.64682	216.54814	198.76393	396.67001	70.91555	248.60860	357.17404	46.33107	211.97510	400.51520	57.50537	147.95674
1604	6.41200	102.75708	987.57434	276.38791	-50.37376	987.27930	419.16357	-66.08360	752.40442	466.15967	-88.97530	711.11359	459.83353	-116.42884	776.92865	444.46695	-130.75945	732.28400	438.04233	0.00000	0.00000	0.00000	-177.34857	490.41934	253.55576	-144.73685	400.74152	380.23975	-151.34590	353.34827	383.09018	-203.97722	402.58072	362.29749	-200.24393	356.79639	363.19934	-174.83459	86.95768	332.10980	0.00000	0.00000	0.00000	-103.85285	40.47990	290.31937	-281.58469	30.34343	341.88998	-330.08438	50.64019	275.28214	-291.53116	26.74640	231.96782	89.72523	987.17944	192.38834	-73.89486	950.99237	90.13019	50.03714	702.12854	52.76639	47.30510	659.07703	58.61505	-10.55261	701.09479	52.29859	-6.28288	656.83307	56.02916	71.16593	440.97372	108.73543	48.60125	420.44159	216.99907	185.80460	425.06656	107.03684	215.64247	393.22919	106.26764	144.69713	376.89178	104.73435	181.44035	353.85791	102.56887	398.53470	202.08235	154.99251	373.92810	198.36734	234.51889	472.70795	223.35684	198.14960	393.30637	74.25491	247.98033	353.99994	48.23301	211.28510	397.28122	61.18212	147.62566
